<svg xmlns="http://www.w3.org/2000/svg" viewBox="0 0 400 400" fill="none" shape-rendering="auto">
  <metadata
    xmlns:rdf="http://www.w3.org/1999/02/22-rdf-syntax-ns#"
    xmlns:xsi="http://www.w3.org/2001/XMLSchema-instance"
    xmlns:dc="http://purl.org/dc/elements/1.1/"
    xmlns:dcterms="http://purl.org/dc/terms/"
  >
    <rdf:RDF>
      <rdf:Description>
        <dc:title>Adventurer Neutral</dc:title>
        <dc:creator>Lisa Wischofsky</dc:creator>
        <dc:source xsi:type="dcterms:URI">https://www.figma.com/community/file/1184595184137881796</dc:source>
        <dcterms:license xsi:type="dcterms:URI">https://creativecommons.org/licenses/by/4.0/</dcterms:license>
        <dc:rights>
          Remix of „Adventurer Neutral” (https://www.figma.com/community/file/1184595184137881796) by „Lisa Wischofsky”, licensed under „CC BY 4.0”
          (https://creativecommons.org/licenses/by/4.0/)
        </dc:rights>
      </rdf:Description>
    </rdf:RDF>
  </metadata>
  <mask id="viewboxMask">
    <rect width="400" height="400" rx="0" ry="0" x="0" y="0" fill="#fff" />
  </mask>
  <g mask="url(#viewboxMask)">
    <rect fill="#f2d3b1" width="400" height="400" x="0" y="0" />
    <g transform="translate(-279 -322)">
      <path
        d="M556 424.07a65.21 65.21 0 0 1 41.05 13.82c18.48 14.28 28.2 38.6 24.23 61.66-.97 7.55-3.9 14.28-6.79 21.23-1.4.65-2.88 1.52-4.42 1.77-2.33.07-4.8-.9-7.04-1.55a178.7 178.7 0 0 0-49.03-7.62c-15.06.4-29.61 2.56-43.09 9.64-3.05 1.28-5.82 4.03-8.96 1.26-8.58-12.42-11.56-28.46-9.81-43.32a65.03 65.03 0 0 1 19.83-39A65.11 65.11 0 0 1 556 424.07Z"
        fill="#000"
      />
      <path
        d="M557 429.85c13.7-.2 27.1 4.84 37.68 13.45a59.16 59.16 0 0 1 19.44 29.7 59.28 59.28 0 0 1-4.3 43.5c-5.35-.6-10.17-2.64-15.46-3.77-16.05-3.75-32.92-5.8-49.39-4.47a92 92 0 0 0-39.3 11.6c-7.05-12.13-10.2-27-7.45-40.83a59.55 59.55 0 0 1 23.8-38.03c10.11-7.24 22.5-11.37 34.98-11.15Z"
        fill="#fff"
      />
      <path
        d="M381.31 447.08a55.36 55.36 0 0 1 37.02 9.56 55.02 55.02 0 0 1 22.82 35.91c1.2 8.25.97 17.09-1.57 25.09a54.9 54.9 0 0 1-30.47 34.5 55.24 55.24 0 0 1-41.44 1.17 54.92 54.92 0 0 1-27.48-22.52c-5.05-8.05-7.68-17.27-8.31-26.7-.33-12.57 3.39-25.15 11-35.22a55.1 55.1 0 0 1 38.43-21.8Z"
        fill="#000"
      />
      <path
        d="M376.49 453.67c18.14-4.16 37.8 3.04 49.17 17.7 8.7 11.04 12.73 26.33 9.55 40.13a48.84 48.84 0 0 1-14.55 26.16 49.53 49.53 0 0 1-29.63 13.27c-19.64 1.82-39.23-9.24-48.03-26.86a49.25 49.25 0 0 1 33.5-70.4Z"
        fill="#fff"
      />
      <path
        d="M519.39 474.75c8.57-2.25 17.85 3.55 19.35 12.31 1.85 8.26-3.88 16.87-12.14 18.52-9.15 2.3-18.91-5.05-19.05-14.53-.72-7.5 4.64-14.5 11.84-16.3ZM403.4 485.62c6.37-2.18 13.28.5 17.27 5.7 4.54 5.94 4.18 14.91-1.03 20.32-5.02 5.79-14.5 6.76-20.65 2.39a15.82 15.82 0 0 1-6.92-13c-.26-6.95 4.69-13.5 11.33-15.4Z"
        fill="#000"
      />
    </g>
    <g transform="translate(-279 -322)">
      <path
        d="M456.01 380.37c2.26-.07 2.85 1.7 2.65 3.64-.5 4.68-.77 9.78-2.32 14.23-1.33.39-2.66.58-4.03.82-1.12-4.8 0-10.22.7-15.09.37-1.71.78-3.82 3-3.6ZM476.79 386.65c.03 3.21-.36 6.36-.67 9.55 41.69.52 83.32.38 125 .75 2.14.04 3.97.86 5.9 1.64-.6 1.48-.22 3.83-2.24 4.1-8.05 1.3-16.58.5-24.74.87-17.35.62-34.7 1-52.06 1.53-17.03.2-34 1.25-51.05 1.42-3.3.39-6.05-2.72-7.2-5.47.02-4.5 1.02-9.15 2.06-13.5 1.28-2.48 2.83-1.67 5-.9ZM439.84 392.18c-.1 4.87-.05 10.81-2.28 15.24-3.22 1.5-7.12 1.79-10.59 2.47-25.65 4.69-51.32 9.34-76.96 14.08-4.24.69-8.7 2.15-13 2.04-2.62-.48-3.32-3.75-.86-5 3.2-1.42 6.95-1.75 10.33-2.59 29.1-6.7 58.15-13.6 87.24-20.32.4-1.91.8-3.81 1.27-5.7 1.61-.21 3.23-.24 4.85-.23Z"
        fill="#000"
      />
    </g>
    <g transform="translate(-279 -322)">
      <path
        d="M514.98 571.8c9.94-.79 20.34-.67 29.5 3.7 4.76 2.28 8.77 6.1 9.74 11.45.87 5.24-1.16 9.93-4.1 14.14-5.1 7.1-13.02 12.35-20.61 16.48-16.5 8.76-34.08 12.05-52.5 13.76-20.25 3.08-41.64-1.62-59.12-12.17-6.2-3.9-12.82-9.26-16.03-16-2.56-5.26-2.25-12 1.93-16.37 4.77-5.2 12.43-7.15 19.2-7.88 15.6-1.27 30.57 2.31 44.79 8.5a117.73 117.73 0 0 1 47.2-15.61Z"
        fill="#000"
      />
      <path
        d="M540.41 580c-3.76 3.21-7.89 5.79-12.13 8.3-2.67 1.53-3.75 4.13-5.44 6.6a30.23 30.23 0 0 1-5.75 6.71c-3.02-1.1-5.96-2.85-9.11-3.5-3.03.45-5.9 1.87-8.86 2.66-10.02 2.86-20.67 5-31.12 4.92-2.95-.04-5.77.19-8.66.8.26 2.48-.5 4.68 2.82 5.02 14.67.86 29.74-2 43.63-6.66 4.74-2.07 7.69 3.08 12.84 1.72 4.35-1.27 7.37-6.6 9.92-10.06 1.78-2.8 4.43-4.12 7.14-5.82 3.66-2.24 6.97-4.85 10.35-7.47 1.44 2.56 3.17 4.68 2.42 7.82-1.4 6.39-6.6 11-11.48 14.92-12.52 9.5-28.96 14.76-44.24 17.66-14.5 1.98-28 4.19-42.61 1.47-12.77-2.46-26.17-7.5-36.14-16.1-3.77-3.4-8.37-8.52-7.81-14 .33-3.74 3.92-6.31 7.09-7.71 7.95-3.35 16.73-3.08 25.15-2.22 8.7 1.23 17.39 3.52 25.38 7.26 1.55.63 3.37 1.64 5.08 1.52 3.1-1.25 5.75-3.55 8.75-5.06a101.93 101.93 0 0 1 28.23-9.73c11.45-2.02 23.37-2.95 34.55.95Z"
        fill="#fff"
      />
    </g>
    <g transform="translate(-279 -322)" />
  </g>
</svg>
