<svg xmlns="http://www.w3.org/2000/svg" viewBox="0 0 400 400" fill="none" shape-rendering="auto">
  <metadata
    xmlns:rdf="http://www.w3.org/1999/02/22-rdf-syntax-ns#"
    xmlns:xsi="http://www.w3.org/2001/XMLSchema-instance"
    xmlns:dc="http://purl.org/dc/elements/1.1/"
    xmlns:dcterms="http://purl.org/dc/terms/"
  >
    <rdf:RDF>
      <rdf:Description>
        <dc:title>Adventurer Neutral</dc:title>
        <dc:creator>Lisa Wischofsky</dc:creator>
        <dc:source xsi:type="dcterms:URI">https://www.figma.com/community/file/1184595184137881796</dc:source>
        <dcterms:license xsi:type="dcterms:URI">https://creativecommons.org/licenses/by/4.0/</dcterms:license>
        <dc:rights>
          Remix of „Adventurer Neutral” (https://www.figma.com/community/file/1184595184137881796) by „Lisa Wischofsky”, licensed under „CC BY 4.0”
          (https://creativecommons.org/licenses/by/4.0/)
        </dc:rights>
      </rdf:Description>
    </rdf:RDF>
  </metadata>
  <mask id="viewboxMask">
    <rect width="400" height="400" rx="0" ry="0" x="0" y="0" fill="#fff" />
  </mask>
  <g mask="url(#viewboxMask)">
    <rect fill="#f2d3b1" width="400" height="400" x="0" y="0" />
    <g transform="translate(-279 -322)">
      <path
        d="M574.47 426.48c13.52 3.69 25.28 11.87 34.03 22.75 7.5-5.17 14.74-10.73 22.37-15.71l3.07 1.28c-.34 2.1-.24 3.64-2.24 4.9-6.6 4.8-13.31 9.45-19.92 14.23 3.77 6.35 7.07 12.73 8.56 20.03 1.59 7.69 2.58 16.11 1.14 23.88-.44 2.76-3.06 3.5-5.47 3.7-19.7 1.03-39.42 3.02-59 5.35-11.08 1.45-22.17 1.92-33.23 3.57-4.5.68-9.03 1.18-13.54 1.79-5 .7-9.54 1.77-14.54.33-4.84-13.86-5.54-28.92-1.07-42.97a65.16 65.16 0 0 1 28.7-36.27c15.07-9.25 34.17-11.67 51.14-6.87Z"
        fill="#000"
      />
      <path
        d="M565.47 430.38a59.78 59.78 0 0 1 42.62 28.54c6.6 11.12 9.16 23.82 8.14 36.67-4.76.39-9.48.96-14.25 1.17-18 1.19-35.9 3.32-53.81 5.48 1.05-2.96 2.25-6.07 2.52-9.2.8-9.38-4.1-18.83-12.31-23.45-5.3-3.21-11.43-3.75-17.45-2.72-11.6 2.17-20.3 13.34-19.52 25.13.01 6.06 2.65 11.12 6.33 15.74l-7.3.74a59.26 59.26 0 0 1 1.6-42.39 59.24 59.24 0 0 1 33.74-32.46c9.48-3.74 19.65-4.48 29.7-3.26Z"
        fill="#fff"
      />
      <path
        d="M416.52 455.44a55 55 0 0 1 24.5 36.47 57.74 57.74 0 0 1-1.23 25.16c-5.34 1.1-10.4.57-15.8.57-24.03-.24-48-.16-72 1.46-5.86-.14-12.62 1.57-17.83-1.24-.94-4.53-2.07-9.19-2.27-13.82-.34-10.1 2.17-19.99 6.82-28.94-6-3.98-12.33-7.55-18.2-11.72-1.9-1.41-1.7-2.69-.83-4.69 2.76-1.07 4.5.5 6.78 1.81 5.07 3.31 10.17 6.56 15.27 9.82a55.77 55.77 0 0 1 31.73-21.84 55.28 55.28 0 0 1 43.05 6.97Z"
        fill="#000"
      />
      <path
        d="M400.8 454.53a49.36 49.36 0 0 1 29.24 23.44 48.95 48.95 0 0 1 5.07 34.42l-5.61.12c2.13-4.63 3.58-9.36 2.88-14.52-.9-8.64-7.3-16.11-15.55-18.64a23.51 23.51 0 0 0-11.81-.2c-9.02 2.14-16.25 10.53-16.65 19.85-.47 4.7.89 8.93 2.74 13.17-13.38.11-26.76.61-40.1 1.61-3.69.2-7.9.7-11.5-.24-1.65-3.05-1.64-7.15-1.79-10.54-.55-13.95 5.57-28 15.83-37.42 12.47-11.6 30.9-16 47.25-11.05Z"
        fill="#fff"
      />
    </g>
    <g transform="translate(-279 -322)">
      <path
        d="M545.03 378.5c24.7.94 48.04 8.97 69.45 21 2.26 1.31 4.92 2.48 6.79 4.32 1.3 2.39-.38 5.13-3.2 4.19-16.58-6.2-33.56-9.63-51.06-12.02-20.3-2.34-39.92-3.68-60.2-.13-3.2.44-6.87 2.16-10.08 1.59-2.66-1.69-1.2-6.1 1.29-7.37 13.63-9.33 30.79-12.1 47-11.58ZM407.99 396.92c3.5.64 6.6 1.92 9.63 3.78-.15 1.2-.26 2.4-.33 3.62-2.7.74-5.46 1.12-8.24 1.34-13.17 1.15-26.45 5.1-38.81 9.69-12.23 4.75-24.78 10.64-35.19 18.7-2.82 2.04-4.13 4.83-8.08 4.48-.5-.9-1-1.79-1.51-2.67.9-1.6 1.68-3.17 2.76-4.64 9.55-13.17 23.64-23.22 38.6-29.35 12.7-5.15 27.62-8.05 41.17-4.95Z"
        fill="#000"
      />
    </g>
    <g transform="translate(-279 -322)">
      <path
        d="M505.05 609.63c4.67 1.28 8.87 4.71 12.16 8.17 1.37 1.66 3.56 3.88 3.05 6.2-.46 2.46-3.75 3.02-5.05.83-2.6-3.53-5.52-6.54-9.45-8.58-2.27-1.46-6.72-.53-6.61-4.14.48-3.02 3.52-2.9 5.9-2.48ZM498 622.96a12.32 12.32 0 0 1 8.78 11.06c1.3 13.18-9.39 25.8-21.75 29.2-12.46 3.65-28.87-1.11-35.07-13.18-2.47-4.2-3.73-9.26-1.94-13.96 1.78-4.05 5.82-5.66 9.97-6.1 5.09-.6 9.55 1.11 13.9 3.54 3.82-4.04 7.74-7.6 12.91-9.8a20.02 20.02 0 0 1 13.2-.76Z"
        fill="#000"
      />
      <path
        d="M498.91 630.09c3.25 3.38 2.26 9.5.47 13.39-4.28 10.05-15.11 16.13-25.9 15-7.3-1.2-14.31-4.12-18.2-10.77-1.43-2.56-3.43-6.58-2-9.44 2.27-3.76 8.76-3.17 12.27-1.8 2.75.76 5.53 4.08 8.39 3.58 3.67-3.56 6.48-7.47 11.18-9.88 4.32-2.4 9.63-3.3 13.8-.08Z"
        fill="#8F2E45"
      />
    </g>
    <g transform="translate(-279 -322)" />
  </g>
</svg>
