<svg width="32" height="32" viewBox="0 0 32 32" fill="none" xmlns="http://www.w3.org/2000/svg">
  <path d="M2.333 5C2.333 3.527 3.527 2.333 5 2.333H17.333C20 2.333 18.667 4 21.333 4H27.143C28.621 4 29.821 5.215 29.808 6.694L29.694 16.694C29.68 18.161 28.494 19.333 27.027 19.333H5C3.527 19.333 2.333 18.14 2.333 16.667V5Z" fill="#1D7AFC" fill-opacity="0.9" />
  <path d="M1.573 16.207C1.447 15.394 2.073 14.667 2.893 14.667H27.267C27.867 14.667 28.22 15.333 27.887 15.833L27.6 16.267V16.267C27.82 16.6 28.267 16.687 28.6 16.467L29 16.2V16.2C29.833 15.787 30.78 16.487 30.627 17.407L29.047 26.647C28.827 27.927 27.713 28.867 26.413 28.867H5.953C4.633 28.867 3.52 27.907 3.313 26.607L1.573 16.207Z" fill="#1D7AFC" />
</svg>
